<svg width="24" height="24" viewBox="0 0 24 24" fill="none" xmlns="http://www.w3.org/2000/svg">
<rect width="24" height="24" rx="12" fill="#B799FF"/>
<path d="M5 10.1111H19.2103M11.3157 16.8889H7.36839C6.06025 16.8889 5 15.8443 5 14.5556V8.33333C5 7.04456 6.06025 6 7.36839 6H16.8419C18.1501 6 19.2103 7.04456 19.2103 8.33333V11.4444M16.2838 19.7721L19.7685 16.339C20.0772 16.0349 20.0772 15.5426 19.7685 15.2392L18.5164 14.0057C18.2077 13.7016 17.708 13.7016 17.4001 14.0057L13.9154 17.4388C13.767 17.585 13.6841 17.7826 13.6841 17.9887V20H15.7256C15.9349 20 16.1354 19.9183 16.2838 19.7721Z" stroke="white" stroke-width="1" stroke-linecap="round" stroke-linejoin="round"/>
</svg>
