<svg width="108" height="37" viewBox="0 0 108 37" fill="none" xmlns="http://www.w3.org/2000/svg">
<g clip-path="url(#clip0_27388_418631)">
<path d="M99.3044 0.0704295H8.76432C8.43429 0.0704295 8.10822 0.0704295 7.77906 0.0722295C7.50353 0.0740295 7.23019 0.0792585 6.95201 0.0836595C6.34767 0.0907711 5.74475 0.143938 5.1485 0.242699C4.55308 0.343609 3.97631 0.533854 3.4377 0.806998C2.89976 1.08245 2.40822 1.44038 1.98092 1.86779C1.55138 2.294 1.19332 2.78664 0.92052 3.32677C0.646966 3.86583 0.457282 4.44347 0.35802 5.03976C0.257815 5.6353 0.203894 6.2377 0.19674 6.84156C0.188388 7.1175 0.187506 7.39436 0.183105 7.67034V28.4732C0.187506 28.7526 0.188388 29.0233 0.19674 29.3029C0.203896 29.9067 0.257818 30.5091 0.35802 31.1046C0.457008 31.7012 0.646703 32.2792 0.92052 32.8185C1.1932 33.3568 1.5513 33.8475 1.98092 34.2713C2.4066 34.7006 2.89845 35.0588 3.4377 35.3322C3.97631 35.606 4.55301 35.7974 5.1485 35.8999C5.74485 35.9979 6.34771 36.051 6.95201 36.059C7.23019 36.0651 7.50353 36.0686 7.77906 36.0686C8.10821 36.0704 8.43431 36.0704 8.76432 36.0704H99.3044C99.6279 36.0704 99.9565 36.0704 100.28 36.0686C100.554 36.0686 100.835 36.0651 101.11 36.059C101.713 36.0515 102.315 35.9983 102.91 35.8999C103.507 35.7967 104.086 35.6054 104.627 35.3322C105.166 35.0587 105.657 34.7005 106.083 34.2713C106.511 33.8458 106.87 33.3555 107.146 32.8185C107.418 32.2788 107.606 31.7009 107.703 31.1046C107.804 30.509 107.859 29.9068 107.87 29.3029C107.874 29.0233 107.874 28.7526 107.874 28.4732C107.881 28.1462 107.881 27.821 107.881 27.4888V8.65295C107.881 8.32336 107.881 7.99641 107.874 7.67034C107.874 7.39436 107.874 7.1175 107.87 6.84153C107.859 6.23761 107.804 5.63534 107.703 5.03973C107.605 4.44378 107.418 3.86618 107.146 3.32674C106.59 2.24411 105.71 1.36285 104.627 0.806917C104.086 0.53444 103.507 0.344246 102.91 0.242618C102.315 0.143422 101.713 0.0902365 101.11 0.0835335C100.835 0.0791415 100.554 0.0738675 100.28 0.0721125C99.9565 0.0703125 99.6279 0.0703125 99.3044 0.0703125V0.0704295Z" fill="#A6A6A6"/>
<path d="M7.78339 35.2844C7.50918 35.2844 7.24159 35.2809 6.96953 35.2747C6.40593 35.2674 5.84365 35.2183 5.2873 35.128C4.76853 35.0386 4.26598 34.8724 3.79623 34.6348C3.33079 34.3992 2.90627 34.0903 2.53894 33.7199C2.16628 33.3539 1.85603 32.9293 1.62048 32.4631C1.38233 31.9938 1.21751 31.4908 1.13178 30.9716C1.03919 30.4137 0.989094 29.8496 0.981926 29.2841C0.97622 29.0943 0.96875 28.4623 0.96875 28.4623V7.67178C0.96875 7.67178 0.976706 7.04951 0.981971 6.8667C0.988834 6.30211 1.03864 5.73886 1.13095 5.18183C1.21684 4.6612 1.38178 4.15675 1.62006 3.68594C1.85475 3.22002 2.16328 2.79515 2.53369 2.42779C2.90368 2.05693 3.32956 1.74642 3.79579 1.50756C4.26446 1.27076 4.76606 1.10573 5.28378 1.01802C5.84196 0.926728 6.40619 0.877371 6.97174 0.870364L7.78383 0.859375H100.276L101.097 0.870805C101.658 0.877464 102.217 0.92638 102.77 1.01714C103.293 1.10595 103.8 1.27213 104.274 1.5102C105.208 1.99156 105.968 2.75312 106.447 3.68814C106.682 4.1557 106.844 4.65603 106.929 5.17217C107.022 5.73377 107.075 6.30144 107.085 6.87066C107.088 7.12554 107.088 7.39931 107.088 7.67178C107.095 8.00928 107.095 8.33052 107.095 8.65439V27.4902C107.095 27.8172 107.095 28.1362 107.088 28.4579C107.088 28.7506 107.088 29.0187 107.084 29.2946C107.074 29.8537 107.022 30.4112 106.931 30.9628C106.847 31.4857 106.683 31.9926 106.445 32.4658C106.207 32.9269 105.899 33.3478 105.531 33.7129C105.163 34.0853 104.738 34.396 104.271 34.6331C103.798 34.8725 103.292 35.0393 102.77 35.128C102.214 35.2188 101.651 35.2679 101.088 35.2747C100.824 35.2809 100.548 35.2844 100.28 35.2844L99.3043 35.2862L7.78339 35.2844Z" fill="black"/>
<path d="M22.4753 18.3433C22.485 17.5921 22.6845 16.8556 23.0553 16.2022C23.4262 15.5489 23.9562 14.9999 24.5962 14.6065C24.1896 14.0258 23.6533 13.548 23.0297 13.2109C22.4062 12.8738 21.7126 12.6867 21.0042 12.6646C19.4928 12.5059 18.0277 13.5689 17.2575 13.5689C16.4725 13.5689 15.2868 12.6803 14.0099 12.7066C13.184 12.7333 12.3791 12.9734 11.6736 13.4037C10.9681 13.834 10.3861 14.4396 9.98427 15.1617C8.24367 18.1753 9.542 22.6042 11.2093 25.0402C12.0436 26.233 13.0185 27.5654 14.2942 27.5181C15.5426 27.4663 16.0088 26.7221 17.5157 26.7221C19.0086 26.7221 19.446 27.5181 20.7476 27.4881C22.0871 27.4663 22.9311 26.29 23.736 25.0859C24.3354 24.2359 24.7966 23.2966 25.1026 22.3026C24.3244 21.9734 23.6602 21.4225 23.193 20.7184C22.7258 20.0143 22.4762 19.1883 22.4753 18.3433Z" fill="white"/>
<path d="M20.0166 11.0634C20.747 10.1866 21.1068 9.05968 21.0197 7.92188C19.9038 8.03907 18.8731 8.57238 18.1329 9.41552C17.7709 9.82742 17.4937 10.3066 17.3171 10.8257C17.1405 11.3448 17.0679 11.8936 17.1035 12.4408C17.6617 12.4465 18.2138 12.3255 18.7184 12.087C19.223 11.8484 19.6669 11.4984 20.0166 11.0634Z" fill="white"/>
<path d="M38.2555 24.4991H33.9954L32.9724 27.5199H31.168L35.203 16.3438H37.0777L41.1128 27.5199H39.2776L38.2555 24.4991ZM34.4366 23.1052H37.8134L36.1488 18.2027H36.1022L34.4366 23.1052Z" fill="white"/>
<path d="M49.8274 23.4426C49.8274 25.9748 48.4721 27.6016 46.4269 27.6016C45.9088 27.6287 45.3935 27.5094 44.9401 27.2572C44.4867 27.0051 44.1135 26.6304 43.8631 26.176H43.8244V30.2119H42.1519V19.368H43.7708V20.7233H43.8016C44.0634 20.2711 44.443 19.8983 44.8999 19.6446C45.3567 19.391 45.8738 19.2659 46.3961 19.2828C48.4641 19.2828 49.8274 20.9175 49.8274 23.4426ZM48.1082 23.4426C48.1082 21.7929 47.2557 20.7083 45.9549 20.7083C44.677 20.7083 43.8174 21.8158 43.8174 23.4426C43.8174 25.0844 44.677 26.1839 45.9549 26.1839C47.2557 26.1839 48.1082 25.1073 48.1082 23.4426Z" fill="white"/>
<path d="M58.7956 23.4426C58.7956 25.9747 57.4404 27.6016 55.3951 27.6016C54.8771 27.6287 54.3618 27.5094 53.9084 27.2572C53.455 27.0051 53.0817 26.6304 52.8314 26.176H52.7927V30.2119H51.1201V19.368H52.7391V20.7233H52.7698C53.0317 20.2711 53.4112 19.8983 53.8681 19.6446C54.325 19.391 54.8421 19.2659 55.3644 19.2828C57.4324 19.2828 58.7956 20.9175 58.7956 23.4426ZM57.0765 23.4426C57.0765 21.7929 56.2239 20.7083 54.9232 20.7083C53.6452 20.7083 52.7857 21.8158 52.7857 23.4426C52.7857 25.0844 53.6452 26.1839 54.9232 26.1839C56.224 26.1839 57.0765 25.1073 57.0765 23.4426H57.0765Z" fill="white"/>
<path d="M64.7229 24.4048C64.8468 25.5131 65.9235 26.2408 67.3948 26.2408C68.8045 26.2408 69.8188 25.5131 69.8188 24.5138C69.8188 23.6463 69.2071 23.1269 67.7586 22.7709L66.3102 22.422C64.2579 21.9263 63.3052 20.9665 63.3052 19.4091C63.3052 17.4808 64.9857 16.1562 67.3719 16.1562C69.7335 16.1562 71.3525 17.4808 71.407 19.4091H69.7186C69.6175 18.2937 68.6955 17.6205 67.3482 17.6205C66.0008 17.6205 65.0788 18.3017 65.0788 19.2931C65.0788 20.0832 65.6677 20.5482 67.1082 20.9041L68.3396 21.2064C70.6326 21.7487 71.5854 22.6698 71.5854 24.3046C71.5854 26.3955 69.9198 27.705 67.2708 27.705C64.7923 27.705 63.1189 26.4262 63.0107 24.4047L64.7229 24.4048Z" fill="white"/>
<path d="M75.1948 17.4453V19.3736H76.7443V20.6981H75.1948V25.1902C75.1948 25.8881 75.5051 26.2133 76.1862 26.2133C76.3702 26.2101 76.5538 26.1972 76.7364 26.1746V27.4912C76.4302 27.5484 76.1189 27.5743 75.8074 27.5685C74.1577 27.5685 73.5143 26.9489 73.5143 25.3686V20.6981H72.3296V19.3736H73.5143V17.4453H75.1948Z" fill="white"/>
<path d="M77.6421 23.4482C77.6421 20.8845 79.152 19.2734 81.5066 19.2734C83.8691 19.2734 85.3721 20.8844 85.3721 23.4482C85.3721 26.019 83.8771 27.623 81.5066 27.623C79.1371 27.623 77.6421 26.019 77.6421 23.4482ZM83.6679 23.4482C83.6679 21.6896 82.8619 20.6516 81.5066 20.6516C80.1514 20.6516 79.3463 21.6975 79.3463 23.4482C79.3463 25.214 80.1514 26.244 81.5066 26.244C82.8619 26.244 83.6678 25.214 83.6678 23.4482H83.6679Z" fill="white"/>
<path d="M86.751 19.3679H88.3462V20.7548H88.3849C88.4928 20.3217 88.7466 19.9389 89.1035 19.6708C89.4604 19.4027 89.8988 19.2656 90.3449 19.2827C90.5376 19.282 90.7298 19.3029 90.9179 19.3451V20.9095C90.6746 20.8352 90.4207 20.801 90.1664 20.8085C89.9234 20.7986 89.6812 20.8414 89.4563 20.934C89.2315 21.0266 89.0293 21.1668 88.8637 21.3449C88.6982 21.523 88.5731 21.7348 88.4971 21.9658C88.4211 22.1968 88.396 22.4415 88.4235 22.6832V27.5163H86.751L86.751 19.3679Z" fill="white"/>
<path d="M98.6291 25.1287C98.4041 26.6079 96.9636 27.623 95.1205 27.623C92.7501 27.623 91.2788 26.0349 91.2788 23.4869C91.2788 20.9311 92.758 19.2734 95.0502 19.2734C97.3046 19.2734 98.7223 20.8221 98.7223 23.2927V23.8657H92.9672V23.9668C92.9406 24.2667 92.9782 24.5688 93.0773 24.853C93.1765 25.1373 93.335 25.3972 93.5423 25.6155C93.7496 25.8338 94.001 26.0055 94.2798 26.1191C94.5586 26.2328 94.8583 26.2859 95.1592 26.2748C95.5544 26.3118 95.9511 26.2203 96.2901 26.0138C96.6292 25.8073 96.8925 25.4969 97.0409 25.1287L98.6291 25.1287ZM92.9751 22.6968H97.0488C97.0638 22.4271 97.023 22.1573 96.9288 21.9042C96.8345 21.6511 96.689 21.4202 96.5014 21.2261C96.3137 21.0319 96.0879 20.8786 95.8382 20.7758C95.5885 20.673 95.3202 20.6229 95.0502 20.6287C94.7778 20.6271 94.5078 20.6794 94.2558 20.7827C94.0038 20.886 93.7747 21.0381 93.5817 21.2304C93.3888 21.4227 93.2359 21.6512 93.1318 21.9029C93.0276 22.1546 92.9744 22.4244 92.9751 22.6968V22.6968Z" fill="white"/>
<path d="M34.2269 7.92797C34.5775 7.90281 34.9294 7.95578 35.2571 8.08307C35.5848 8.21036 35.8801 8.40879 36.1219 8.66405C36.3636 8.91932 36.5457 9.22504 36.6549 9.55919C36.7642 9.89333 36.7979 10.2476 36.7537 10.5963C36.7537 12.3119 35.8265 13.2981 34.2269 13.2981H32.2871V7.92797H34.2269ZM33.1212 12.5387H34.1337C34.3842 12.5536 34.635 12.5126 34.8677 12.4184C35.1004 12.3243 35.3091 12.1794 35.4788 11.9944C35.6484 11.8094 35.7747 11.5889 35.8484 11.3489C35.922 11.109 35.9413 10.8556 35.9047 10.6073C35.9386 10.3599 35.9174 10.1081 35.8426 9.86993C35.7678 9.63173 35.6412 9.41303 35.472 9.22949C35.3027 9.04595 35.095 8.90212 34.8636 8.80831C34.6322 8.7145 34.383 8.67302 34.1337 8.68686H33.1212V12.5387Z" fill="white"/>
<path d="M37.6961 11.2668C37.6706 11.0005 37.701 10.7318 37.7855 10.4779C37.87 10.224 38.0065 9.99063 38.1865 9.79265C38.3664 9.59466 38.5858 9.43648 38.8304 9.32823C39.0751 9.21998 39.3397 9.16406 39.6072 9.16406C39.8748 9.16406 40.1394 9.21998 40.384 9.32823C40.6287 9.43648 40.848 9.59466 41.028 9.79265C41.2079 9.99063 41.3445 10.224 41.429 10.4779C41.5134 10.7318 41.5439 11.0005 41.5184 11.2668C41.5444 11.5334 41.5143 11.8025 41.43 12.0568C41.3458 12.311 41.2093 12.5449 41.0293 12.7432C40.8493 12.9416 40.6298 13.1001 40.3849 13.2086C40.14 13.3171 39.8751 13.3731 39.6072 13.3731C39.3394 13.3731 39.0745 13.3171 38.8296 13.2086C38.5847 13.1001 38.3651 12.9416 38.1852 12.7432C38.0052 12.5449 37.8687 12.311 37.7844 12.0568C37.7002 11.8025 37.6701 11.5334 37.6961 11.2668ZM40.6958 11.2668C40.6958 10.3883 40.3011 9.87462 39.6086 9.87462C38.9133 9.87462 38.5223 10.3883 38.5223 11.2668C38.5223 12.1523 38.9134 12.6621 39.6086 12.6621C40.3011 12.6621 40.6958 12.1488 40.6958 11.2668H40.6958Z" fill="white"/>
<path d="M46.5992 13.3026H45.7695L44.9319 10.3179H44.8687L44.0346 13.3026H43.2128L42.0957 9.25H42.9069L43.6329 12.3424H43.6927L44.5259 9.25H45.2932L46.1264 12.3424H46.1897L46.9121 9.25H47.7119L46.5992 13.3026Z" fill="white"/>
<path d="M48.6514 9.24628H49.4213V9.89008H49.4811C49.5824 9.65885 49.7535 9.46501 49.9702 9.33559C50.187 9.20616 50.4388 9.1476 50.6904 9.16805C50.8876 9.15323 51.0856 9.18296 51.2698 9.25504C51.4539 9.32713 51.6195 9.43972 51.7542 9.58448C51.8889 9.72924 51.9893 9.90246 52.048 10.0913C52.1067 10.2801 52.1221 10.4798 52.0932 10.6754V13.2989H51.2934V10.8762C51.2934 10.2249 51.0104 9.90107 50.4189 9.90107C50.285 9.89483 50.1513 9.91762 50.0271 9.96786C49.9028 10.0181 49.7909 10.0946 49.699 10.1922C49.6071 10.2897 49.5373 10.406 49.4946 10.533C49.4518 10.66 49.437 10.7948 49.4512 10.9281V13.2989H48.6514L48.6514 9.24628Z" fill="white"/>
<path d="M53.3677 7.66406H54.1675V13.2987H53.3677V7.66406Z" fill="white"/>
<path d="M55.2795 11.2669C55.2541 11.0005 55.2846 10.7318 55.369 10.4779C55.4535 10.2241 55.5901 9.99065 55.7701 9.79266C55.95 9.59467 56.1694 9.43648 56.4141 9.32823C56.6588 9.21998 56.9234 9.16406 57.1909 9.16406C57.4585 9.16406 57.7231 9.21998 57.9678 9.32823C58.2125 9.43648 58.4318 9.59467 58.6118 9.79266C58.7917 9.99065 58.9283 10.2241 59.0128 10.4779C59.0973 10.7318 59.1278 11.0005 59.1023 11.2669C59.1283 11.5335 59.0981 11.8026 59.0139 12.0568C58.9296 12.3111 58.7931 12.5449 58.6131 12.7433C58.4331 12.9417 58.2135 13.1002 57.9686 13.2087C57.7237 13.3172 57.4588 13.3732 57.1909 13.3732C56.9231 13.3732 56.6582 13.3172 56.4132 13.2087C56.1683 13.1002 55.9488 12.9417 55.7688 12.7433C55.5888 12.5449 55.4522 12.3111 55.368 12.0568C55.2837 11.8026 55.2536 11.5335 55.2795 11.2669ZM58.2792 11.2669C58.2792 10.3884 57.8846 9.8747 57.192 9.8747C56.4968 9.8747 56.1057 10.3884 56.1057 11.2669C56.1057 12.1524 56.4968 12.6621 57.192 12.6621C57.8846 12.6621 58.2792 12.1489 58.2792 11.2669H58.2792Z" fill="white"/>
<path d="M59.9443 12.1488C59.9443 11.4193 60.4875 10.9988 61.4517 10.939L62.5494 10.8757V10.5259C62.5494 10.0979 62.2664 9.8562 61.7197 9.8562C61.2732 9.8562 60.9639 10.0201 60.8751 10.3066H60.1008C60.1825 9.61054 60.8373 9.16406 61.7566 9.16406C62.7727 9.16406 63.3457 9.66986 63.3457 10.5259V13.2949H62.5758V12.7254H62.5125C62.3841 12.9297 62.2037 13.0962 61.9898 13.208C61.776 13.3198 61.5363 13.3728 61.2952 13.3617C61.1251 13.3794 60.9531 13.3612 60.7904 13.3084C60.6278 13.2556 60.478 13.1692 60.3507 13.055C60.2234 12.9407 60.1215 12.801 60.0515 12.645C59.9815 12.4889 59.945 12.3199 59.9443 12.1488ZM62.5494 11.8025V11.4637L61.5598 11.527C61.0017 11.5643 60.7485 11.7542 60.7485 12.1115C60.7485 12.4762 61.0649 12.6885 61.5 12.6885C61.6275 12.7014 61.7563 12.6885 61.8787 12.6506C62.0011 12.6127 62.1146 12.5506 62.2125 12.468C62.3104 12.3853 62.3907 12.2838 62.4486 12.1695C62.5065 12.0552 62.5408 11.9304 62.5494 11.8025Z" fill="white"/>
<path d="M64.3965 11.2707C64.3965 9.9901 65.0548 9.17887 66.0787 9.17887C66.332 9.1672 66.5834 9.22786 66.8034 9.35377C67.0235 9.47967 67.2032 9.66562 67.3215 9.88987H67.3813V7.66406H68.1811V13.2987H67.4147V12.6584H67.3514C67.2239 12.8812 67.038 13.0648 66.8136 13.1894C66.5893 13.3141 66.3352 13.375 66.0787 13.3655C65.0478 13.3656 64.3965 12.5543 64.3965 11.2707ZM65.2227 11.2707C65.2227 12.1302 65.6279 12.6475 66.3055 12.6475C66.9796 12.6475 67.3962 12.1228 67.3962 11.2742C67.3962 10.4296 66.9752 9.89738 66.3055 9.89738C65.6322 9.89738 65.2227 10.4181 65.2227 11.2707H65.2227Z" fill="white"/>
<path d="M71.4905 11.2668C71.465 11.0005 71.4955 10.7318 71.5799 10.4779C71.6644 10.224 71.801 9.99063 71.9809 9.79265C72.1609 9.59466 72.3802 9.43648 72.6249 9.32823C72.8695 9.21998 73.1341 9.16406 73.4017 9.16406C73.6692 9.16406 73.9338 9.21998 74.1785 9.32823C74.4231 9.43648 74.6425 9.59466 74.8224 9.79265C75.0024 9.99063 75.1389 10.224 75.2234 10.4779C75.3079 10.7318 75.3383 11.0005 75.3128 11.2668C75.3388 11.5334 75.3087 11.8025 75.2245 12.0568C75.1402 12.311 75.0037 12.5449 74.8237 12.7432C74.6438 12.9416 74.4242 13.1001 74.1793 13.2086C73.9344 13.3171 73.6695 13.3731 73.4017 13.3731C73.1338 13.3731 72.8689 13.3171 72.624 13.2086C72.3791 13.1001 72.1596 12.9416 71.9796 12.7432C71.7996 12.5449 71.6631 12.311 71.5789 12.0568C71.4946 11.8025 71.4645 11.5334 71.4905 11.2668ZM74.4902 11.2668C74.4902 10.3883 74.0956 9.87462 73.403 9.87462C72.7078 9.87462 72.3167 10.3883 72.3167 11.2668C72.3167 12.1523 72.7078 12.6621 73.403 12.6621C74.0956 12.6621 74.4902 12.1488 74.4902 11.2668Z" fill="white"/>
<path d="M76.3857 9.24628H77.1557V9.89008H77.2154C77.3168 9.65885 77.4878 9.46501 77.7046 9.33559C77.9214 9.20616 78.1732 9.1476 78.4248 9.16805C78.622 9.15323 78.82 9.18296 79.0041 9.25504C79.1883 9.32713 79.3538 9.43972 79.4885 9.58448C79.6233 9.72924 79.7237 9.90246 79.7824 10.0913C79.841 10.2801 79.8565 10.4798 79.8275 10.6754V13.2989H79.0277V10.8762C79.0277 10.2249 78.7447 9.90107 78.1532 9.90107C78.0193 9.89483 77.8857 9.91762 77.7614 9.96786C77.6372 10.0181 77.5253 10.0946 77.4334 10.1922C77.3415 10.2897 77.2717 10.406 77.2289 10.533C77.1862 10.66 77.1714 10.7948 77.1855 10.9281V13.2989H76.3857V9.24628Z" fill="white"/>
<path d="M84.3469 8.23438V9.26181H85.2249V9.9355H84.3469V12.0194C84.3469 12.4439 84.5218 12.6298 84.9199 12.6298C85.0219 12.6295 85.1237 12.6233 85.2249 12.6113V13.2775C85.0813 13.3032 84.9357 13.3169 84.7898 13.3184C83.9004 13.3184 83.5462 13.0055 83.5462 12.2242V9.93546H82.9028V9.26178H83.5462V8.23438H84.3469Z" fill="white"/>
<path d="M86.3174 7.66406H87.1102V9.89737H87.1734C87.2798 9.66398 87.4554 9.46905 87.6766 9.33913C87.8977 9.20922 88.1535 9.15065 88.4091 9.17139C88.6053 9.16072 88.8014 9.19347 88.9834 9.26731C89.1655 9.34114 89.329 9.45425 89.4623 9.59855C89.5956 9.74286 89.6954 9.9148 89.7547 10.1021C89.8139 10.2894 89.831 10.4875 89.8048 10.6822V13.2987H89.0042V10.8795C89.0042 10.2322 88.7027 9.90439 88.1376 9.90439C88.0002 9.89311 87.8619 9.91201 87.7325 9.95976C87.6031 10.0075 87.4857 10.083 87.3885 10.1808C87.2913 10.2787 87.2167 10.3966 87.1698 10.5263C87.123 10.656 87.105 10.7944 87.1172 10.9318V13.2987H86.3174L86.3174 7.66406Z" fill="white"/>
<path d="M94.4687 12.2007C94.36 12.5711 94.1245 12.8915 93.8035 13.1059C93.4825 13.3202 93.0963 13.4148 92.7126 13.3732C92.4456 13.3803 92.1803 13.3291 91.935 13.2233C91.6898 13.1176 91.4705 12.9597 91.2923 12.7607C91.1142 12.5616 90.9816 12.3262 90.9035 12.0708C90.8255 11.8154 90.804 11.546 90.8405 11.2814C90.805 11.016 90.8268 10.7461 90.9047 10.4899C90.9825 10.2337 91.1145 9.99718 91.2917 9.79641C91.4689 9.59565 91.6871 9.43529 91.9317 9.32621C92.1762 9.21712 92.4413 9.16185 92.7091 9.16413C93.8367 9.16413 94.517 9.93453 94.517 11.2071V11.4862H91.6553V11.531C91.6427 11.6798 91.6614 11.8294 91.7101 11.9705C91.7589 12.1116 91.8365 12.2409 91.9381 12.3502C92.0397 12.4596 92.1631 12.5464 92.3002 12.6053C92.4374 12.6641 92.5853 12.6937 92.7346 12.692C92.9259 12.715 93.1197 12.6805 93.2914 12.5931C93.4631 12.5056 93.6049 12.369 93.6987 12.2007L94.4687 12.2007ZM91.6552 10.8947H93.7022C93.7123 10.7587 93.6938 10.6221 93.648 10.4936C93.6021 10.3652 93.5299 10.2477 93.4359 10.1489C93.342 10.05 93.2284 9.97187 93.1024 9.91951C92.9765 9.86715 92.841 9.84172 92.7047 9.84485C92.5663 9.84311 92.4291 9.86908 92.3009 9.92123C92.1728 9.97338 92.0564 10.0507 91.9586 10.1485C91.8608 10.2463 91.7836 10.3628 91.7315 10.4909C91.6794 10.6191 91.6535 10.7564 91.6553 10.8947H91.6552Z" fill="white"/>
</g>
<defs>
<clipPath id="clip0_27388_418631">
<rect width="107.698" height="36" fill="white" transform="translate(0.183105 0.0703125)"/>
</clipPath>
</defs>
</svg>
