<svg width="32" height="41" viewBox="0 0 32 41" fill="none" xmlns="http://www.w3.org/2000/svg">
<path d="M1.49605 37.4878L19.039 40.4681C19.4385 40.5346 19.8481 40.4404 20.1784 40.2059C20.5087 39.9715 20.7328 39.6159 20.8017 39.2168L21.0194 37.9423L26.0365 8.41479C26.1035 8.01546 26.0098 7.60581 25.7757 7.27542C25.5415 6.94502 25.1861 6.72076 24.7872 6.65166L9.29074 4.02209L7.24781 3.66864C6.8484 3.60288 6.43917 3.69744 6.10909 3.93175C5.779 4.16606 5.55475 4.52118 5.48506 4.91993L0.248348 35.7223C0.181339 36.1217 0.274879 36.5313 0.508587 36.862C0.742295 37.1927 1.09723 37.4177 1.49605 37.4878Z" fill="white"/>
<path opacity="0.1" d="M1.49605 37.4878L19.039 40.4681C19.4385 40.5346 19.8481 40.4404 20.1784 40.2059C20.5087 39.9715 20.7328 39.6159 20.8017 39.2168L21.0194 37.9423L26.0365 8.41479C26.1035 8.01546 26.0098 7.60581 25.7757 7.27542C25.5415 6.94502 25.1861 6.72076 24.7872 6.65166L9.29074 4.02209L7.24781 3.66864C6.8484 3.60288 6.43917 3.69744 6.10909 3.93175C5.779 4.16606 5.55475 4.52118 5.48506 4.91993L0.248348 35.7223C0.181339 36.1217 0.274879 36.5313 0.508587 36.862C0.742295 37.1927 1.09723 37.4177 1.49605 37.4878Z" fill="#8756FF"/>
<path d="M14.3623 4.88149L8.61633 38.6982L17.2607 40.167L23.0067 6.35029L14.3623 4.88149Z" fill="white"/>
<path opacity="0.3" d="M14.3623 4.88149L8.61633 38.6982L17.2607 40.167L23.0067 6.35029L14.3623 4.88149Z" fill="#8756FF"/>
<path d="M16.6844 8.02255L13.0533 29.3926L16.1471 29.9182L19.7781 8.54821L16.6844 8.02255Z" fill="white"/>
<path opacity="0.8" d="M16.6844 8.02255L13.0533 29.3926L16.1471 29.9182L19.7781 8.54821L16.6844 8.02255Z" fill="#8756FF"/>
<path d="M11.3603 4.12831L5.70789 38.0391L10.3326 38.8099L15.985 4.89917L11.3603 4.12831Z" fill="white"/>
<path opacity="0.7" d="M11.3603 4.12831L5.70789 38.0391L10.3326 38.8099L15.985 4.89917L11.3603 4.12831Z" fill="#202427"/>
<path d="M4.04698 34.1026L21.0145 37.9409L26.0316 8.41346C26.0986 8.01412 26.0049 7.60448 25.7708 7.27408C25.5366 6.94369 25.1812 6.71943 24.7823 6.65033L9.28585 4.02075L2.89422 32.2738C2.80626 32.669 2.87806 33.083 3.09398 33.4256C3.3099 33.7681 3.65244 34.0115 4.04698 34.1026Z" fill="white"/>
<path d="M3.52269 31.4494L11.5529 1.25384C11.6581 0.862792 11.9139 0.529301 12.2642 0.32628C12.6146 0.123259 13.0311 0.0672281 13.4227 0.170436L30.6193 4.74387C31.0104 4.84896 31.3441 5.10452 31.5474 5.45475C31.7508 5.80499 31.8073 6.22146 31.7047 6.61323L23.6744 36.8088C23.5685 37.1996 23.3126 37.5328 22.9623 37.7359C22.612 37.939 22.1957 37.9956 21.8039 37.8934L4.60727 33.3199C4.21604 33.2147 3.88236 32.9589 3.67914 32.6084C3.47592 32.2579 3.41967 31.8412 3.52269 31.4494Z" fill="white"/>
<path opacity="0.1" d="M3.52269 31.4494L11.5529 1.25384C11.6581 0.862792 11.9139 0.529301 12.2642 0.32628C12.6146 0.123259 13.0311 0.0672281 13.4227 0.170436L30.6193 4.74387C31.0104 4.84896 31.3441 5.10452 31.5474 5.45475C31.7508 5.80499 31.8073 6.22146 31.7047 6.61323L23.6744 36.8088C23.5685 37.1996 23.3126 37.5328 22.9623 37.7359C22.612 37.939 22.1957 37.9956 21.8039 37.8934L4.60727 33.3199C4.21604 33.2147 3.88236 32.9589 3.67914 32.6084C3.47592 32.2579 3.41967 31.8412 3.52269 31.4494Z" fill="#8756FF"/>
<path d="M20.003 1.92118L11.1869 35.0703L18.6677 37.0599L27.4838 3.91073L20.003 1.92118Z" fill="white"/>
<path opacity="0.3" d="M20.003 1.92118L11.1869 35.0703L18.6677 37.0599L27.4838 3.91073L20.003 1.92118Z" fill="#8756FF"/>
<path opacity="0.8" d="M14.7429 3.65592L13.2043 9.44086C13.1259 9.73564 13.3013 10.0382 13.5961 10.1166C13.8909 10.195 14.1934 10.0195 14.2718 9.72476L15.8104 3.93983C15.8888 3.64504 15.7133 3.34252 15.4186 3.26412C15.1238 3.18572 14.8213 3.36114 14.7429 3.65592Z" fill="#8756FF"/>
<path d="M27.9571 6.59898L26.495 12.0967L27.0529 12.2451L28.515 6.74736L27.9571 6.59898Z" fill="white"/>
<path d="M29.0255 6.8843L27.1414 13.9688L27.6993 14.1171L29.5834 7.03268L29.0255 6.8843Z" fill="white"/>
<path opacity="0.8" d="M21.5652 32.3488L20.9423 34.691C20.8542 35.0224 21.0514 35.3625 21.3828 35.4506C21.7141 35.5387 22.0542 35.3415 22.1424 35.0101L22.7653 32.668C22.8534 32.3366 22.6562 31.9965 22.3248 31.9084C21.9934 31.8202 21.6533 32.0174 21.5652 32.3488Z" fill="#8756FF"/>
<path d="M23.8334 10.8168L24.9339 6.6808C24.9911 6.46218 24.9596 6.22984 24.8464 6.03428C24.7332 5.83873 24.5473 5.69579 24.3293 5.63653C24.1107 5.57937 23.8783 5.61082 23.6828 5.72404C23.4872 5.83727 23.3443 6.02312 23.285 6.24118L22.1848 10.3791C22.1277 10.5978 22.1591 10.8301 22.2723 11.0256C22.3856 11.2212 22.5714 11.3641 22.7895 11.4234C23.0083 11.4804 23.2408 11.4486 23.4363 11.335C23.6318 11.2214 23.7745 11.0351 23.8334 10.8168Z" fill="white"/>
<path d="M21.9492 17.9008L23.0494 13.7628C23.1054 13.5453 23.0738 13.3146 22.9615 13.1201C22.8491 12.9257 22.665 12.7831 22.4486 12.7229C22.2301 12.6661 21.9979 12.6979 21.8026 12.8112C21.6073 12.9246 21.4647 13.1104 21.4056 13.3284L20.3062 17.4652C20.249 17.6838 20.2805 17.9161 20.3937 18.1117C20.5069 18.3072 20.6928 18.4502 20.9108 18.5094C21.1292 18.5647 21.3605 18.5318 21.5548 18.4179C21.7491 18.304 21.8907 18.1183 21.9492 17.9008Z" fill="white"/>
<path d="M20.067 24.9838L21.1672 20.8458C21.2224 20.6285 21.1903 20.3981 21.0777 20.2042C20.9651 20.0102 20.781 19.8681 20.5648 19.8083C20.3463 19.7515 20.1141 19.7833 19.9188 19.8966C19.7235 20.01 19.5809 20.1958 19.5218 20.4138L18.4152 24.5509C18.3585 24.7694 18.3902 25.0016 18.5036 25.1969C18.6169 25.3922 18.8027 25.5349 19.0207 25.594C19.2403 25.6516 19.4739 25.6196 19.67 25.5053C19.8662 25.3909 20.0089 25.2033 20.067 24.9838Z" fill="white"/>
<g opacity="0.8">
<path d="M23.8347 10.8177L24.9353 6.68177C24.9924 6.46316 24.961 6.23081 24.8478 6.03526C24.7345 5.83971 24.5487 5.69676 24.3306 5.6375C24.112 5.58034 23.8797 5.61179 23.6841 5.72502C23.4886 5.83825 23.3456 6.0241 23.2864 6.24215L22.1862 10.3801C22.129 10.5987 22.1605 10.8311 22.2737 11.0266C22.3869 11.2222 22.5728 11.3651 22.7908 11.4244C23.0097 11.4814 23.2421 11.4496 23.4377 11.336C23.6332 11.2223 23.7759 11.0361 23.8347 10.8177Z" fill="#8756FF"/>
<path d="M21.9492 17.9008L23.0494 13.7628C23.1054 13.5453 23.0738 13.3146 22.9615 13.1201C22.8491 12.9257 22.665 12.7831 22.4486 12.7229C22.2301 12.6661 21.9979 12.6979 21.8026 12.8112C21.6073 12.9246 21.4647 13.1104 21.4056 13.3284L20.3062 17.4652C20.249 17.6838 20.2805 17.9161 20.3937 18.1117C20.5069 18.3072 20.6928 18.4502 20.9108 18.5094C21.1292 18.5647 21.3605 18.5318 21.5548 18.4179C21.7491 18.304 21.8907 18.1183 21.9492 17.9008Z" fill="#8756FF"/>
<path d="M20.0672 24.9838L21.1674 20.8458C21.2227 20.6285 21.1905 20.3981 21.0779 20.2042C20.9653 20.0102 20.7812 19.8681 20.5651 19.8083C20.3465 19.7515 20.1144 19.7833 19.9191 19.8966C19.7238 20.01 19.5811 20.1958 19.522 20.4138L18.4155 24.5509C18.3587 24.7694 18.3904 25.0016 18.5038 25.1969C18.6172 25.3922 18.803 25.5349 19.0209 25.594C19.2406 25.6516 19.4741 25.6196 19.6703 25.5053C19.8664 25.3909 20.0092 25.2033 20.0672 24.9838Z" fill="#8756FF"/>
<path d="M18.1812 32.0726L19.2814 27.9347C19.3378 27.7171 19.3065 27.4862 19.1943 27.2915C19.0821 27.0968 18.898 26.9539 18.6815 26.8936C18.4629 26.8368 18.2308 26.8686 18.0355 26.9819C17.8402 27.0953 17.6975 27.2811 17.6384 27.4991L16.5382 31.637C16.4811 31.8557 16.5125 32.088 16.6257 32.2835C16.739 32.4791 16.9248 32.622 17.1429 32.6813C17.3612 32.7366 17.5925 32.7037 17.7868 32.5898C17.9811 32.4759 18.1228 32.2901 18.1812 32.0726Z" fill="#8756FF"/>
</g>
<path d="M18.6083 4.71889L17.6291 8.4006C17.5459 8.7133 17.732 9.03422 18.0447 9.11738L20.2294 9.69841C20.5421 9.78158 20.8631 9.5955 20.9462 9.2828L21.9254 5.60109C22.0085 5.28839 21.8225 4.96747 21.5098 4.88431L19.325 4.30327C19.0123 4.22011 18.6914 4.40619 18.6083 4.71889Z" fill="white"/>
<path opacity="0.7" d="M18.6083 4.71889L17.6291 8.4006C17.5459 8.7133 17.732 9.03422 18.0447 9.11738L20.2294 9.69841C20.5421 9.78158 20.8631 9.5955 20.9462 9.2828L21.9254 5.60109C22.0085 5.28839 21.8225 4.96747 21.5098 4.88431L19.325 4.30327C19.0123 4.22011 18.6914 4.40619 18.6083 4.71889Z" fill="#202427"/>
<path opacity="0.8" d="M9.67862 24.882C9.41641 24.812 9.14298 24.7943 8.87394 24.83C8.6049 24.8657 8.34554 24.9541 8.1107 25.0902C7.87586 25.2262 7.67013 25.4072 7.50529 25.6228C7.34045 25.8384 7.21973 26.0844 7.15004 26.3467L6.41742 29.3606L6.40478 29.3969L6.38607 29.4879L6.37285 29.5429C6.28404 30.0496 6.39385 30.571 6.67945 30.9989C6.96506 31.4268 7.40452 31.7282 7.90654 31.8405C8.40857 31.9529 8.93458 31.8675 9.3753 31.6022C9.81603 31.3368 10.1376 30.9119 10.2732 30.4156L11.0643 27.6282C11.0942 27.5528 11.1201 27.4757 11.1418 27.3975C11.1574 27.3393 11.1699 27.2803 11.1792 27.2207C11.2652 26.714 11.1591 26.1935 10.8816 25.7609C10.604 25.3284 10.1751 25.015 9.67862 24.882Z" fill="#8756FF"/>
</svg>
