<svg width="123" height="37" viewBox="0 0 123 37" fill="none" xmlns="http://www.w3.org/2000/svg">
<path d="M117.692 36.0703H5.3736C2.90262 36.0703 0.880859 34.0453 0.880859 31.5703V4.57033C0.880859 2.09531 2.90258 0.0703125 5.3736 0.0703125H117.692C120.163 0.0703125 122.185 2.09531 122.185 4.57033V31.5703C122.185 34.0453 120.163 36.0703 117.692 36.0703Z" fill="black"/>
<path d="M117.692 0.0703125H5.3736C2.90262 0.0703125 0.880859 2.09531 0.880859 4.57033V31.5703C0.880859 34.0453 2.90258 36.0703 5.3736 36.0703H117.692C120.163 36.0703 122.185 34.0453 122.185 31.5703V4.57033C122.185 2.09531 120.163 0.0703125 117.692 0.0703125H117.692ZM117.692 0.79029C119.773 0.79029 121.466 2.48628 121.466 4.57033V31.5703C121.466 33.6547 119.773 35.3507 117.692 35.3507H5.3736C3.29295 35.3507 1.5997 33.6547 1.5997 31.5703V4.57033C1.5997 2.48628 3.2929 0.79033 5.3736 0.79033H117.692" fill="#A6A6A6"/>
<path d="M96.9674 27.0715H98.644V15.8204H96.9673L96.9674 27.0715ZM112.069 19.8733L110.147 24.7512H110.09L108.095 19.8733H106.289L109.28 26.6911L107.575 30.4834H109.324L113.934 19.8733L112.069 19.8733ZM102.561 25.7936C102.011 25.7936 101.245 25.5186 101.245 24.838C101.245 23.9696 102.2 23.6367 103.023 23.6367C103.76 23.6367 104.106 23.7959 104.555 24.0133C104.424 25.0553 103.529 25.7936 102.561 25.7936ZM102.763 19.6271C101.549 19.6271 100.292 20.1629 99.7717 21.3498L101.26 21.9721C101.578 21.3498 102.17 21.1469 102.792 21.1469C103.659 21.1469 104.54 21.6683 104.555 22.5947V22.7104C104.251 22.5367 103.601 22.2762 102.806 22.2762C101.202 22.2762 99.5686 23.1589 99.5686 24.8092C99.5686 26.3146 100.884 27.2845 102.358 27.2845C103.485 27.2845 104.106 26.7779 104.497 26.1845H104.555V27.0529H106.173V22.7391C106.173 20.742 104.685 19.6271 102.763 19.6271ZM92.4009 21.2429H90.0162V17.3863H92.4009C93.6544 17.3863 94.3661 18.4258 94.3661 19.3146C94.3661 20.1865 93.6544 21.2429 92.4009 21.2429ZM92.3578 15.8204H88.3404V27.0715H90.0162V22.8088H92.3578C94.216 22.8088 96.0427 21.4612 96.0427 19.3146C96.0427 17.168 94.216 15.8204 92.3578 15.8204ZM70.4503 25.7957C69.292 25.7957 68.3222 24.8243 68.3222 23.4901C68.3222 22.1419 69.292 21.1558 70.4503 21.1558C71.5939 21.1558 72.4914 22.1419 72.4914 23.4901C72.4914 24.8243 71.5939 25.7957 70.4503 25.7957ZM72.3755 20.5033H72.3176C71.9414 20.0539 71.2172 19.6479 70.3054 19.6479C68.3946 19.6479 66.6431 21.3298 66.6431 23.4901C66.6431 25.6361 68.3945 27.3035 70.3054 27.3035C71.2172 27.3035 71.9414 26.8974 72.3176 26.4337H72.3755V26.9846C72.3755 28.4493 71.5939 29.2322 70.3345 29.2322C69.3067 29.2322 68.6698 28.4925 68.4089 27.8691L66.9471 28.4781C67.3669 29.493 68.4816 30.7401 70.3345 30.7401C72.3032 30.7401 73.968 29.5799 73.968 26.7526V19.8799H72.3755V20.5033ZM75.1259 27.0715H76.8051V15.82H75.1259V27.0715ZM79.2806 23.3597C79.2371 21.8806 80.4242 21.1269 81.2782 21.1269C81.9445 21.1269 82.5088 21.4602 82.6966 21.9391L79.2806 23.3597ZM84.4919 22.0838C84.1738 21.2281 83.2034 19.6479 81.2202 19.6479C79.2515 19.6479 77.6159 21.1993 77.6159 23.4757C77.6159 25.6217 79.2371 27.3035 81.4084 27.3035C83.1603 27.3035 84.1738 26.2305 84.5935 25.6072L83.2906 24.737C82.8565 25.3752 82.2626 25.7957 81.4084 25.7957C80.5544 25.7957 79.9465 25.404 79.5555 24.6358L84.6654 22.5187L84.4919 22.0838ZM43.7804 20.8224V22.4463H47.6599C47.544 23.3597 47.24 24.0266 46.7767 24.4906C46.2124 25.0563 45.3293 25.6796 43.7803 25.6796C41.3918 25.6796 39.5245 23.7513 39.5245 21.3589C39.5245 18.9665 41.3918 17.0379 43.7804 17.0379C45.0688 17.0379 46.0095 17.5455 46.7044 18.198L47.848 17.0527C46.8782 16.1245 45.5897 15.4141 43.7804 15.4141C40.5087 15.4141 37.7583 18.082 37.7583 21.3589C37.7583 24.6358 40.5087 27.3035 43.7804 27.3035C45.5466 27.3035 46.8782 26.7238 47.9203 25.6361C48.9916 24.5631 49.3247 23.0552 49.3247 21.8374C49.3247 21.4602 49.2959 21.1125 49.2376 20.8224H43.7804ZM53.7353 25.7957C52.577 25.7957 51.5781 24.8386 51.5781 23.4757C51.5781 22.0982 52.577 21.1558 53.7353 21.1558C54.8932 21.1558 55.8921 22.0982 55.8921 23.4757C55.8921 24.8387 54.8932 25.7957 53.7353 25.7957ZM53.7353 19.6479C51.6215 19.6479 49.8989 21.2573 49.8989 23.4757C49.8989 25.6796 51.6215 27.3035 53.7353 27.3035C55.8486 27.3035 57.5713 25.6796 57.5713 23.4757C57.5713 21.2573 55.8486 19.6479 53.7353 19.6479ZM62.1036 25.7957C60.9458 25.7957 59.9467 24.8386 59.9467 23.4757C59.9467 22.0982 60.9458 21.1558 62.1036 21.1558C63.2616 21.1558 64.2605 22.0982 64.2605 23.4757C64.2605 24.8387 63.2616 25.7957 62.1036 25.7957ZM62.1036 19.6479C59.99 19.6479 58.2677 21.2573 58.2677 23.4757C58.2677 25.6796 59.99 27.3035 62.1036 27.3035C64.217 27.3035 65.9398 25.6796 65.9398 23.4757C65.9398 21.2573 64.217 19.6479 62.1036 19.6479Z" fill="white"/>
<path d="M10.3233 6.91716C10.0218 7.18966 9.8418 7.64417 9.8418 8.2475V8.11111V28.0201V27.889C9.8418 28.4461 9.99619 28.8764 10.2576 29.1535L10.3244 29.2175V29.2178C10.536 29.4091 10.8074 29.5106 11.1184 29.5103C11.4223 29.5103 11.7642 29.4133 12.125 29.2084L25.1676 21.7858L29.6476 19.2359C30.2166 18.9122 30.536 18.4945 30.5894 18.0691V18.0673C30.536 17.6409 30.2166 17.2236 29.6477 16.8998L25.1672 14.3502L12.1251 6.92767C11.7634 6.7224 11.4213 6.625 11.1166 6.625C10.806 6.625 10.535 6.72624 10.3234 6.91716H10.3233Z" fill="#00C1FF"/>
<path d="M10.3244 29.2188L10.2576 29.1548C9.99619 28.8777 9.8418 28.4474 9.8418 27.8902V28.0213V8.11727V8.24873C9.8418 7.6454 10.0218 7.19089 10.3233 6.91839L21.4562 18.0689L10.3244 29.2188Z" fill="url(#paint0_linear_27388_418666)"/>
<path d="M25.1675 21.7891L21.4561 18.071L25.1672 14.3535L29.6476 16.903C30.2165 17.2269 30.5359 17.6442 30.5893 18.0706V18.0723C30.5359 18.4978 30.2165 18.9155 29.6476 19.2392L25.1675 21.789" fill="url(#paint1_linear_27388_418666)"/>
<path d="M11.1181 29.5156C10.8072 29.5159 10.5358 29.4143 10.3242 29.2231V29.2228L21.456 18.073L25.1674 21.791L12.1248 29.2136C11.7639 29.4186 11.422 29.5156 11.1181 29.5156Z" fill="url(#paint2_linear_27388_418666)"/>
<path d="M21.4561 18.0703L10.3232 6.91977C10.5349 6.72886 10.8059 6.62761 11.1165 6.62761C11.4212 6.62761 11.7634 6.72497 12.1249 6.93029L25.1672 14.3528L21.4561 18.0703" fill="url(#paint3_linear_27388_418666)"/>
<path d="M11.1183 29.6484C10.8074 29.6484 10.5356 29.5468 10.324 29.3556L10.3237 29.3559C10.3228 29.355 10.3219 29.3542 10.3209 29.3535L10.263 29.2969C10.2612 29.2951 10.2595 29.293 10.2573 29.291L10.3241 29.2241C10.5357 29.4153 10.807 29.5169 11.1181 29.5166C11.4219 29.5166 11.7638 29.4196 12.1247 29.2146L25.1672 21.7921L25.2508 21.8758L25.1662 21.9239L12.1246 29.3461C11.7958 29.5328 11.483 29.6302 11.2005 29.6464C11.1731 29.6477 11.1457 29.6484 11.1183 29.6484" fill="url(#paint4_linear_27388_418666)"/>
<path d="M10.2576 29.2891C9.99619 29.012 9.8418 28.582 9.8418 28.0245V27.8934C9.8418 28.4505 9.99619 28.8808 10.2576 29.1579L10.3244 29.2219L10.2576 29.2891Z" fill="url(#paint5_linear_27388_418666)"/>
<path d="M25.251 21.875L25.1675 21.7912L29.6475 19.2414C30.2165 18.9177 30.5359 18.5 30.5893 18.0745C30.5893 18.2307 30.5545 18.3867 30.4854 18.5387C30.3461 18.8449 30.0667 19.1342 29.6476 19.3729L25.251 21.875" fill="url(#paint6_linear_27388_418666)"/>
<path d="M30.5892 18.0703C30.5358 17.6439 30.2164 17.2266 29.6474 16.9027L25.167 14.3532L25.2506 14.2695H25.2509L29.6474 16.7716C30.2747 17.1288 30.5888 17.5995 30.5892 18.0703Z" fill="url(#paint7_linear_27388_418666)"/>
<path d="M9.8418 8.25V8.11248C9.8418 8.06289 9.84313 8.01439 9.84568 7.96731V7.96516C9.84568 7.96452 9.84568 7.96383 9.84592 7.9631V7.9578C9.87298 7.47788 10.0218 7.10353 10.2576 6.85356L10.3233 6.91962C10.0218 7.19216 9.8418 7.64667 9.8418 8.25Z" fill="url(#paint8_linear_27388_418666)"/>
<path d="M25.1669 14.3516L12.1247 6.92892C11.7631 6.72364 11.4209 6.62628 11.1162 6.62628C10.8056 6.62628 10.5346 6.72753 10.323 6.91844L10.2573 6.85235C10.2778 6.8306 10.2992 6.80962 10.3212 6.78945C10.3219 6.78872 10.323 6.788 10.3237 6.78731C10.5336 6.59785 10.8018 6.49661 11.1096 6.49479H11.1162C11.4209 6.49479 11.7631 6.59219 12.1247 6.79754L25.2508 14.2676L25.2505 14.2678L25.1669 14.3516Z" fill="url(#paint9_linear_27388_418666)"/>
<path d="M42.7935 8.60511C42.7521 8.47088 42.6949 8.35073 42.622 8.24467C42.5507 8.13696 42.4645 8.04498 42.3635 7.96875C42.264 7.89252 42.1497 7.83535 42.0204 7.79723C41.8912 7.75746 41.7503 7.73757 41.5978 7.73757C41.3244 7.73757 41.0808 7.80634 40.867 7.94389C40.6532 8.08144 40.485 8.28362 40.3624 8.55043C40.2414 8.81558 40.1809 9.13873 40.1809 9.51989C40.1809 9.90436 40.2414 10.23 40.3624 10.4968C40.4834 10.7636 40.6516 10.9666 40.867 11.1058C41.0824 11.2434 41.3327 11.3121 41.6177 11.3121C41.8762 11.3121 42.1 11.2624 42.2889 11.163C42.4795 11.0636 42.6261 10.9227 42.7289 10.7404C42.8316 10.5565 42.883 10.341 42.883 10.0941L43.0918 10.1264H41.7097V9.40554H43.7754V10.017C43.7754 10.4529 43.6826 10.8299 43.497 11.1481C43.3114 11.4663 43.0562 11.7115 42.7314 11.8839C42.4065 12.0546 42.0337 12.1399 41.6127 12.1399C41.1438 12.1399 40.7319 12.0347 40.3773 11.8242C40.0243 11.6121 39.7484 11.3113 39.5495 10.9219C39.3523 10.5308 39.2537 10.0668 39.2537 9.52983C39.2537 9.11884 39.3117 8.75178 39.4277 8.42862C39.5454 8.10547 39.7095 7.8312 39.9199 7.60582C40.1304 7.37879 40.3773 7.20644 40.6607 7.08878C40.9441 6.96946 41.2523 6.9098 41.5854 6.9098C41.8671 6.9098 42.1298 6.95123 42.3734 7.03409C42.617 7.11529 42.8333 7.2313 43.0222 7.3821C43.2128 7.53291 43.3694 7.71188 43.492 7.91903C43.6146 8.12618 43.695 8.35488 43.7331 8.60511H42.7935ZM44.6672 12.0703V6.9794H47.9782V7.75249H45.5894V9.13459H47.8067V9.90767H45.5894V11.2972H47.9981V12.0703H44.6672ZM48.6954 7.75249V6.9794H52.7572V7.75249H51.1837V12.0703H50.2689V7.75249H48.6954ZM56.1988 6.9794V12.0703H55.2765V6.9794H56.1988ZM61.381 6.9794V12.0703H60.5607L58.1619 8.60263H58.1197V12.0703H57.1974V6.9794H58.0227L60.419 10.4496H60.4638V6.9794H61.381ZM68.6713 9.52486C68.6713 10.0734 68.5685 10.5432 68.363 10.9343C68.1592 11.3237 67.8808 11.622 67.5278 11.8292C67.1765 12.0363 66.7779 12.1399 66.3321 12.1399C65.8863 12.1399 65.4869 12.0363 65.134 11.8292C64.7826 11.6204 64.5042 11.3213 64.2987 10.9318C64.0949 10.5407 63.993 10.0717 63.993 9.52486C63.993 8.97633 64.0949 8.50734 64.2987 8.1179C64.5042 7.7268 64.7826 7.42768 65.134 7.22053C65.4869 7.01338 65.8863 6.9098 66.3321 6.9098C66.7779 6.9098 67.1765 7.01338 67.5278 7.22053C67.8808 7.42768 68.1592 7.7268 68.363 8.1179C68.5685 8.50734 68.6713 8.97633 68.6713 9.52486ZM67.7441 9.52486C67.7441 9.13873 67.6836 8.81309 67.5626 8.54794C67.4433 8.28113 67.2776 8.07978 67.0654 7.94389C66.8533 7.80634 66.6089 7.73757 66.3321 7.73757C66.0554 7.73757 65.8109 7.80634 65.5988 7.94389C65.3867 8.07978 65.2201 8.28113 65.0992 8.54794C64.9798 8.81309 64.9202 9.13873 64.9202 9.52486C64.9202 9.91098 64.9798 10.2375 65.0992 10.5043C65.2201 10.7694 65.3867 10.9708 65.5988 11.1083C65.8109 11.2442 66.0554 11.3121 66.3321 11.3121C66.6089 11.3121 66.8533 11.2442 67.0654 11.1083C67.2776 10.9708 67.4433 10.7694 67.5626 10.5043C67.6836 10.2375 67.7441 9.91098 67.7441 9.52486ZM73.7267 6.9794V12.0703H72.9064L70.5076 8.60263H70.4654V12.0703H69.5431V6.9794H70.3684L72.7647 10.4496H72.8095V6.9794H73.7267Z" fill="white"/>
<defs>
<linearGradient id="paint0_linear_27388_418666" x1="16.9563" y1="7.9069" x2="7.36234" y2="17.5163" gradientUnits="userSpaceOnUse">
<stop stop-color="#00A0FF"/>
<stop offset="0.00657" stop-color="#00A1FF"/>
<stop offset="0.2601" stop-color="#00BEFF"/>
<stop offset="0.5122" stop-color="#00D2FF"/>
<stop offset="0.7604" stop-color="#00DFFF"/>
<stop offset="1" stop-color="#00E3FF"/>
</linearGradient>
<linearGradient id="paint1_linear_27388_418666" x1="31.2826" y1="18.0067" x2="9.54039" y2="18.0067" gradientUnits="userSpaceOnUse">
<stop stop-color="#FFE000"/>
<stop offset="0.4087" stop-color="#FFBD00"/>
<stop offset="0.7754" stop-color="#FFA500"/>
<stop offset="1" stop-color="#FF9C00"/>
</linearGradient>
<linearGradient id="paint2_linear_27388_418666" x1="23.197" y1="21.608" x2="6.93918" y2="37.773" gradientUnits="userSpaceOnUse">
<stop stop-color="#FF3A44"/>
<stop offset="1" stop-color="#C31162"/>
</linearGradient>
<linearGradient id="paint3_linear_27388_418666" x1="7.45399" y1="5.26665" x2="14.6997" y2="12.4821" gradientUnits="userSpaceOnUse">
<stop stop-color="#32A071"/>
<stop offset="0.0685" stop-color="#2DA771"/>
<stop offset="0.4762" stop-color="#15CF74"/>
<stop offset="0.8009" stop-color="#06E775"/>
<stop offset="1" stop-color="#00F076"/>
</linearGradient>
<linearGradient id="paint4_linear_27388_418666" x1="23.1887" y1="24.1881" x2="10.1687" y2="37.2291" gradientUnits="userSpaceOnUse">
<stop stop-color="#CC2E36"/>
<stop offset="1" stop-color="#9C0E4E"/>
</linearGradient>
<linearGradient id="paint5_linear_27388_418666" x1="11.3249" y1="7.91" x2="2.87266" y2="16.3759" gradientUnits="userSpaceOnUse">
<stop stop-color="#008DE0"/>
<stop offset="0.00657" stop-color="#008DE0"/>
<stop offset="0.2601" stop-color="#00A7E0"/>
<stop offset="0.5122" stop-color="#00B8E0"/>
<stop offset="0.7604" stop-color="#00C4E0"/>
<stop offset="1" stop-color="#00C7E0"/>
</linearGradient>
<linearGradient id="paint6_linear_27388_418666" x1="31.2826" y1="18.0737" x2="9.54036" y2="18.0737" gradientUnits="userSpaceOnUse">
<stop stop-color="#E0C500"/>
<stop offset="0.4087" stop-color="#E0A600"/>
<stop offset="0.7754" stop-color="#E09100"/>
<stop offset="1" stop-color="#E08900"/>
</linearGradient>
<linearGradient id="paint7_linear_27388_418666" x1="31.2824" y1="18.0712" x2="9.54029" y2="18.0712" gradientUnits="userSpaceOnUse">
<stop stop-color="#FFE840"/>
<stop offset="0.4087" stop-color="#FFCE40"/>
<stop offset="0.7754" stop-color="#FFBC40"/>
<stop offset="1" stop-color="#FFB540"/>
</linearGradient>
<linearGradient id="paint8_linear_27388_418666" x1="11.3157" y1="7.92346" x2="3.17471" y2="15.7243" gradientUnits="userSpaceOnUse">
<stop stop-color="#40B8FF"/>
<stop offset="0.00657" stop-color="#40B9FF"/>
<stop offset="0.2601" stop-color="#40CEFF"/>
<stop offset="0.5122" stop-color="#40DDFF"/>
<stop offset="0.7604" stop-color="#40E7FF"/>
<stop offset="1" stop-color="#40EAFF"/>
</linearGradient>
<linearGradient id="paint9_linear_27388_418666" x1="7.4375" y1="7.62345" x2="13.2515" y2="13.4469" gradientUnits="userSpaceOnUse">
<stop stop-color="#65B895"/>
<stop offset="0.0685" stop-color="#62BD95"/>
<stop offset="0.4762" stop-color="#50DB97"/>
<stop offset="0.8009" stop-color="#44ED98"/>
<stop offset="1" stop-color="#40F498"/>
</linearGradient>
</defs>
</svg>
